<?xml version="1.0" encoding="utf-8"?>
<!-- Generator: Adobe Illustrator 19.2.1, SVG Export Plug-In . SVG Version: 6.00 Build 0)  -->
<svg version="1.1" id="Ebene_1" xmlns="http://www.w3.org/2000/svg" xmlns:xlink="http://www.w3.org/1999/xlink" x="0px" y="0px"
	 width="195px" height="40.969px" viewBox="0 0 195 40.969" style="enable-background:new 0 0 195 40.969;" xml:space="preserve">
<metadata><?xpacket begin="﻿" id="W5M0MpCehiHzreSzNTczkc9d"?>
<x:xmpmeta xmlns:x="adobe:ns:meta/" x:xmptk="Adobe XMP Core 5.6-c111 79.158366, 2015/09/25-01:12:00        ">
   <rdf:RDF xmlns:rdf="http://www.w3.org/1999/02/22-rdf-syntax-ns#">
      <rdf:Description rdf:about=""/>
   </rdf:RDF>
</x:xmpmeta>
                                                                                                    
                                                                                                    
                                                                                                    
                                                                                                    
                                                                                                    
                                                                                                    
                                                                                                    
                                                                                                    
                                                                                                    
                                                                                                    
                                                                                                    
                                                                                                    
                                                                                                    
                                                                                                    
                                                                                                    
                                                                                                    
                                                                                                    
                                                                                                    
                                                                                                    
                                                                                                    
                           
<?xpacket end="w"?></metadata>
<path id="icn_BZ-Logo-Sechseck.svg" d="M127.988,18.275h11.43l-11.43,10.9v4.694h18.485v-4.441h-11.432l11.432-10.9v-4.689h-18.485
	V18.275z M119.588,13.839h-8.218c-1.581-0.1-3.132,0.46-4.284,1.547c-1.081,1.17-1.636,2.732-1.534,4.322v7.893
	c-0.078,1.475,0.456,2.917,1.475,3.987c1.053,1.024,2.485,1.563,3.952,1.487h1.37c2.208-0.04,4.406-0.301,6.562-0.78l0.532-0.111
	v2.324c0.109,1.008-0.619,1.913-1.626,2.022c-0.127,0.014-0.255,0.014-0.382,0.002h-9.927v4.437h12.08
	c1.581,0.101,3.133-0.46,4.285-1.547c1.081-1.17,1.635-2.732,1.533-4.321V19.708c0.101-1.59-0.453-3.152-1.533-4.322
	c-1.153-1.087-2.705-1.647-4.286-1.546L119.588,13.839z M119.442,28.169l-0.366,0.065c-1.576,0.272-3.173,0.406-4.772,0.4h-0.978
	c-0.484,0.009-0.951-0.181-1.291-0.525c-0.342-0.345-0.53-0.814-0.521-1.3V20.3c-0.109-1.008,0.619-1.913,1.626-2.022
	c0.127-0.014,0.254-0.014,0.381-0.002h3.913c1.008-0.101,1.908,0.634,2.01,1.642c0.013,0.127,0.012,0.255-0.002,0.382V28.169z
	 M173.4,13.445h-3.08v4.436h0.928c1.008-0.101,1.907,0.634,2.008,1.642c0.013,0.127,0.012,0.255-0.002,0.382v13.964h5.965V19.313
	c0.101-1.59-0.453-3.152-1.534-4.322C176.532,13.904,174.981,13.345,173.4,13.445z M195,18.275V13.84h-4.891V9.104h-5.248
	l-0.783,4.736H181.8v4.435h2.349v10.01c-0.102,1.59,0.453,3.151,1.534,4.321c1.152,1.087,2.703,1.648,4.284,1.547h5.029v-4.436
	h-2.877c-1.008,0.101-1.908-0.635-2.009-1.643c-0.013-0.127-0.012-0.255,0.002-0.382v-9.417H195z M91.3,14.992
	c-1.081,1.17-1.636,2.731-1.534,4.321v14.551h5.964V19.905c-0.11-1.007,0.617-1.912,1.624-2.022
	c0.127-0.014,0.256-0.014,0.383-0.002h5.884v-4.436h-8.036C94.004,13.344,92.452,13.905,91.3,14.992z M60.1,13.445h-1.37
	c-2.208,0.039-4.407,0.301-6.563,0.78l-0.531,0.11v-7.2h-5.964v20.861c-0.102,1.59,0.453,3.151,1.534,4.321
	c1.151,1.089,2.703,1.651,4.284,1.552h8.217c1.581,0.101,3.133-0.46,4.285-1.547c1.081-1.17,1.635-2.732,1.533-4.321v-9.082
	c0.078-1.475-0.455-2.917-1.474-3.987C62.998,13.908,61.567,13.369,60.1,13.445z M59.562,27.403c0.11,1.007-0.618,1.913-1.625,2.023
	c-0.127,0.014-0.255,0.014-0.382,0.002h-3.913c-1.008,0.101-1.908-0.635-2.009-1.643c-0.013-0.127-0.012-0.254,0.002-0.381v-9.08
	l0.391-0.046c0.442-0.052,1.059-0.131,1.852-0.236c0.96-0.116,1.927-0.169,2.894-0.161h0.978c0.484-0.008,0.95,0.182,1.291,0.525
	c0.341,0.346,0.529,0.814,0.521,1.3v7.7L59.562,27.403z M179.215,7.13h-5.964v4.439h5.964V7.13z M81.623,13.445H73.8
	c-1.581-0.101-3.133,0.46-4.285,1.547c-1.081,1.17-1.635,2.732-1.533,4.322v8.683c-0.102,1.589,0.452,3.151,1.533,4.321
	c1.152,1.089,2.703,1.65,4.285,1.551h12.079v-4.441h-9.927c-1.008,0.101-1.908-0.635-2.009-1.643
	c-0.013-0.127-0.012-0.255,0.002-0.382v-1.234h13.5v-6.856c0.102-1.59-0.452-3.152-1.533-4.322
	C84.758,13.903,83.205,13.344,81.623,13.445z M81.479,22.127h-7.537V19.51c-0.11-1.007,0.617-1.912,1.624-2.022
	c0.127-0.014,0.256-0.014,0.383-0.002h3.522c1.008-0.101,1.908,0.634,2.01,1.642c0.013,0.127,0.012,0.255-0.002,0.382V22.127z
	 M162.308,13.445h-7.826c-1.581-0.1-3.133,0.46-4.286,1.547c-1.08,1.17-1.634,2.732-1.533,4.322v8.647l0.012,0.353
	c-0.157,2.918,2.081,5.412,5,5.569c0.269,0.014,0.538,0.008,0.805-0.018h12.08v-4.437h-9.927c-1.008,0.102-1.907-0.633-2.009-1.641
	c-0.013-0.127-0.012-0.256,0.002-0.383v-1.235h13.5v-6.856c0.102-1.59-0.453-3.152-1.534-4.322
	C165.439,13.905,163.888,13.345,162.308,13.445z M162.163,22.127h-7.536V19.51c-0.109-1.008,0.619-1.913,1.626-2.022
	c0.127-0.014,0.254-0.014,0.381-0.002h3.522c1.008-0.102,1.907,0.633,2.009,1.641c0.013,0.127,0.012,0.256-0.002,0.383
	L162.163,22.127L162.163,22.127z M33.987,8.245L20.725,0.636c-1.571-0.899-3.502-0.886-5.061,0.033L2.5,8.448
	C0.939,9.38-0.012,11.068,0,12.886l0.1,15.389c0.013,1.816,0.987,3.49,2.559,4.4l13.262,7.609c1.571,0.899,3.502,0.886,5.061-0.033
	l13.165-7.78c1.561-0.931,2.512-2.619,2.5-4.437l-0.1-15.389C36.533,10.828,35.56,9.155,33.987,8.245z M3.572,10.297l13.165-7.78
	c0.905-0.533,2.026-0.541,2.937-0.019l13.263,7.609c0.913,0.528,1.478,1.501,1.485,2.556L34.5,24.906l-7.606-6.29l-2.914,2.928
	l-9.88-8.192L2.19,23.869l-0.07-11C2.114,11.815,2.667,10.837,3.572,10.297z M2.9,30.128l11.083-14.016l-2.07,10.381l0.148,0.026
	l4.3-9.533l6.6,5.58L10.734,34.851L3.7,30.817C3.394,30.638,3.123,30.404,2.9,30.128z M33.07,30.628L19.9,38.407
	c-0.905,0.533-2.026,0.54-2.937,0.019l-1.1-0.632c2.156-3.643,10.443-17.83,10.443-17.83l-2.345,10.805l0.131,0.041l3.389-10.038
	l7.027,5.563l0.011,1.714c0.008,1.056-0.545,2.037-1.452,2.578L33.07,30.628z"/>
</svg>
